<svg xmlns="http://www.w3.org/2000/svg" viewBox="0 0 400 232" width="400" height="232" role="img" aria-labelledby="t d">
<title id="t">Demo Shopify</title><desc id="d">Demo Shopify: App híbrida (iOS y Android) que consume una API NestJS con autenticación JWT.</desc>
<style>.sans{font-family:'Segoe UI','SF Pro Display',system-ui,-apple-system,'Helvetica Neue',Arial,sans-serif}.mono{font-family:'SFMono-Regular','JetBrains Mono',Consolas,'Liberation Mono',Menlo,monospace}
@media (prefers-reduced-motion:reduce){*{animation:none!important}}</style>
<defs><linearGradient id="cb" x1="0" y1="0" x2="1" y2="1"><stop offset="0" stop-color="#141833"/><stop offset="1" stop-color="#0f1222"/></linearGradient><linearGradient id="ta" x1="0" y1="0" x2="1" y2="0"><stop offset="0" stop-color="#7dcfff"/><stop offset="1" stop-color="#bb9af7"/></linearGradient><clipPath id="cc"><rect width="400" height="232" rx="18"/></clipPath><radialGradient id="cg"><stop offset="0" stop-color="#7dcfff" stop-opacity="0.22"/><stop offset="1" stop-color="#7dcfff" stop-opacity="0"/></radialGradient></defs>

<g clip-path="url(#cc)">
  <rect width="400" height="232" fill="url(#cb)"/>
  <circle cx="400" cy="0" r="170" fill="url(#cg)"/>
  <rect width="400" height="4" fill="url(#ta)"/>
</g>
<rect x=".5" y=".5" width="399" height="231" rx="18" fill="none" stroke="#262a45"/>
<rect x="24" y="24" width="73" height="24" rx="12" fill="#7dcfff" fill-opacity=".12" stroke="#7dcfff" stroke-opacity=".3"/>
<circle cx="37" cy="36" r="3.2" fill="#7dcfff"/>
<text class="mono" x="47" y="40.5" font-size="11" font-weight="700" fill="#7dcfff" letter-spacing=".8">MOBILE</text>
<text class="mono" x="376" y="40.5" font-size="12" fill="#565f89" text-anchor="end">2024</text>
<text class="sans" x="24" y="80" font-size="23" font-weight="800" fill="#c0caf5">Demo Shopify</text>
<text class="sans" x="24" y="103" font-size="13.5" fill="#8b94bd">App híbrida (iOS y Android) que consume una</text>
<text class="sans" x="24" y="122" font-size="13.5" fill="#8b94bd">API NestJS con autenticación JWT.</text>
<g><rect x="24" y="154" width="79" height="24" rx="12" fill="#7dcfff" fill-opacity=".11" stroke="#7dcfff" stroke-opacity=".28"/><circle cx="36" cy="166" r="3" fill="#7dcfff"/><text class="mono" x="45" y="170" font-size="11.5" fill="#c0caf5">Flutter</text></g><g><rect x="111" y="154" width="58" height="24" rx="12" fill="#7aa2f7" fill-opacity=".11" stroke="#7aa2f7" stroke-opacity=".28"/><circle cx="123" cy="166" r="3" fill="#7aa2f7"/><text class="mono" x="132" y="170" font-size="11.5" fill="#c0caf5">BLoC</text></g><g><rect x="177" y="154" width="72" height="24" rx="12" fill="#7aa2f7" fill-opacity=".11" stroke="#7aa2f7" stroke-opacity=".28"/><circle cx="189" cy="166" r="3" fill="#7aa2f7"/><text class="mono" x="198" y="170" font-size="11.5" fill="#c0caf5">get_it</text></g><g><rect x="257" y="154" width="100" height="24" rx="12" fill="#f7768e" fill-opacity=".11" stroke="#f7768e" stroke-opacity=".28"/><circle cx="269" cy="166" r="3" fill="#f7768e"/><text class="mono" x="278" y="170" font-size="11.5" fill="#c0caf5">NestJS API</text></g>
<line x1="24" y1="192" x2="376" y2="192" stroke="#262a45"/>
<text class="mono" x="24" y="216" font-size="12" fill="#565f89">github.com/…/<tspan fill="#7aa2f7">demoviewshopify</tspan></text>
<g transform="translate(358 202)" fill="none" stroke="#7aa2f7" stroke-width="1.8" stroke-linecap="round" stroke-linejoin="round"><path d="M1 13L13 1M4 1h9v9"/></g>

</svg>
